<svg width="584" height="673" viewBox="0 0 584 673" fill="none" xmlns="http://www.w3.org/2000/svg">
<path d="M103.78 205.319C106.299 195.243 119.199 186.245 127.172 181.217C141.857 171.954 160.633 170.453 177.359 167.181C201.847 162.389 226.25 163.211 251.079 163.211C254.498 163.211 262.125 161.912 264.264 165.763C268.31 173.046 239.889 188.36 237.328 190.078C213.451 206.093 187.787 219.24 160.984 229.634C144.576 235.997 123.844 244.083 112.995 258.911C110.377 262.489 109.439 274.223 115.405 274.223C155.372 274.223 195.26 271.885 235.201 271.671C240.055 271.645 287.514 268.858 287.514 272.309C287.514 276.718 277.186 283.404 274.684 285.424C248.438 306.612 218.004 315.426 186.999 327.107C184.794 327.938 85.5554 366.828 96.9037 380.699C99.5869 383.979 106.44 382.684 110.018 382.684C127.828 382.684 146.8 376.005 163.536 371.271C201.085 360.648 238.329 345.876 276.74 338.591C283.042 337.395 294.867 344.307 286.593 350.713C249.243 379.63 198.962 393.015 154.675 407.779C146.512 410.5 120.711 417.93 122.99 430.463C123.822 435.044 133.183 435 136.529 435C162.129 435 184.624 429.023 208.832 420.113C240.99 408.276 272.523 394.785 304.385 382.188C314.711 378.105 325.197 372.625 336 369.924" stroke="#FFF2CF" stroke-width="171" stroke-linecap="round" stroke-linejoin="round"/>
<g filter="url(#filter0_d_24_50)">
<path d="M285.528 110C276.156 110 143.271 130.018 78 140.027V451.973C78 465.318 121.514 482 139.924 482C154.651 482 186.227 473.103 200.174 468.655L210.5 465L316 333L319 190.072V150.036C319 130.018 297.243 110 285.528 110Z" fill="#FFD15A"/>
<path d="M78 140.027C143.271 130.018 276.156 110 285.528 110C297.243 110 319 130.018 319 150.036C319 166.05 319 183.399 319 190.072L316 333L210.5 465L200.174 468.655C186.227 473.103 154.651 482 139.924 482C121.514 482 78 465.318 78 451.973C78 441.297 78 239.561 78 140.027ZM78 140.027C92.5046 145.587 122.518 160.712 126.535 176.726C127.324 179.873 128.04 189.424 128.685 203.417M133.229 463.65C132.86 404.837 131.809 305.396 129.978 240.117" stroke="black" stroke-width="4" stroke-linecap="round" stroke-linejoin="round"/>
</g>
<path d="M163.363 189.491C152.671 190.828 152.226 204.54 153.34 211.229C152.226 263.066 150 374.433 150 405.201C150 443.661 158.353 441.989 171.717 441.989C182.408 441.989 251.901 420.808 285.311 410.218C288.095 332.74 291.993 177.116 285.311 174.441C276.958 171.097 176.727 187.818 163.363 189.491Z" stroke="black" stroke-width="3" stroke-linecap="round" stroke-linejoin="round"/>
<path d="M144 167L289 144" stroke="black" stroke-width="3" stroke-linecap="round" stroke-linejoin="round"/>
<path d="M320.363 216.696L365.113 342L405.745 464.203C408.01 471.016 403.825 478.281 396.795 479.739L228.282 514.691C222.039 515.986 215.874 512.173 214.244 506.008L147.283 252.752C145.507 246.034 149.79 239.217 156.613 237.902L306.79 208.949C312.606 207.828 318.371 211.118 320.363 216.696Z" fill="#FF4E4A" stroke="black" stroke-width="3" stroke-linecap="round" stroke-linejoin="round"/>
<path d="M240.036 360.305C200.18 351.786 205.317 304.02 214.375 287.286C232.49 261.424 258.16 255.34 285.331 265.989C312.102 276.48 310.994 307.061 310.994 317.71C310.994 321.648 308.102 329.956 301.938 338.324M240.036 360.305C240.037 346.107 244.569 317.71 262.686 317.71C280.802 317.71 296.403 331.453 301.938 338.324M240.036 360.305C271.431 367.016 291.436 352.583 301.938 338.324" stroke="#FFD15A" stroke-width="6" stroke-linecap="round" stroke-linejoin="round"/>
<circle cx="250.5" cy="293.5" r="16.5" stroke="#FFD15A" stroke-width="6" stroke-linecap="round" stroke-linejoin="round"/>
<path d="M580.5 560C559.419 540.615 550.094 531.49 543.437 508.893C535.115 480.647 518.473 384.278 465.216 364.34C422.611 348.389 382.003 345.509 367.024 346.063L388.5 412.5M388.5 412.5C377 412.5 347 403.5 334 412.5C324.422 419.131 322.089 425.815 330.41 435.785C338.732 445.754 372.016 454.062 393.651 455.723C410.959 457.052 425.272 468.462 430.265 474C412.512 472.339 372.347 471.342 353.709 480.646C330.41 492.277 335.402 503.908 335.402 512.215M388.5 412.5C409.5 412.5 445.8 408.648 459 430.5M335.402 512.215C335.402 520.523 406.506 537.661 416.951 530.492M335.402 512.215C330.963 518.862 324.749 535.145 335.402 547.108C348.717 562.062 398.644 573.692 410.294 570.369M416.951 530.492C443.579 512.215 420.278 498.923 393.651 497.262M416.951 530.492C435.258 547.108 421.944 567.046 410.294 570.369M410.294 570.369C416.396 586.431 435.692 613.512 453 617.5C474.635 622.485 483.522 626.862 496.836 640.154L520 669" stroke="black" stroke-width="7" stroke-linecap="round" stroke-linejoin="round"/>
<path d="M332.361 131.748C359.601 103.341 363.151 96.6792 382.692 71" stroke="#FF4E4A" stroke-width="5" stroke-linecap="round"/>
<path d="M339.924 147.164C376.774 133.341 398.344 117.339 424.409 96.7208" stroke="#FF4E4A" stroke-width="5" stroke-linecap="round"/>
<path d="M347 174.43C363.055 169.744 368.337 167.598 399.53 154.782" stroke="#FF4E4A" stroke-width="5" stroke-linecap="round"/>
<path d="M224 409.5L342 380.5" stroke="#FFD15A" stroke-width="6" stroke-linecap="round" stroke-linejoin="round"/>
<g filter="url(#filter1_d_24_50)">
<path d="M53.1224 451.603C53.6243 448.375 57.5731 447.077 59.8918 449.377L79.6575 468.983C80.5653 469.884 81.8488 470.296 83.1112 470.092L110.596 465.661C113.821 465.141 116.275 468.495 114.804 471.411L102.266 496.268C101.69 497.41 101.695 498.758 102.279 499.895L114.987 524.666C116.477 527.572 114.046 530.943 110.818 530.445L83.3032 526.202C82.0395 526.007 80.7588 526.428 79.8572 527.334L60.2261 547.075C57.9232 549.391 53.9656 548.12 53.4416 544.896L48.9748 517.417C48.7696 516.155 47.9735 515.067 46.8326 514.489L21.9919 501.919C19.0778 500.445 19.0636 496.288 21.9675 494.794L46.7217 482.054C47.8585 481.469 48.6472 480.375 48.8437 479.112L53.1224 451.603Z" fill="#363F71"/>
<path d="M54.6046 451.833C54.9183 449.816 57.3862 449.005 58.8354 450.442L78.6012 470.048C79.8494 471.286 81.6142 471.853 83.3499 471.573L110.835 467.142C112.85 466.817 114.384 468.913 113.465 470.736L100.927 495.593C100.135 497.162 100.141 499.016 100.944 500.58L113.652 525.351C114.584 527.167 113.064 529.274 111.047 528.963L83.5318 524.719C81.7942 524.451 80.0333 525.03 78.7936 526.277L59.1625 546.017C57.7231 547.465 55.2497 546.67 54.9222 544.655L50.4553 517.176C50.1733 515.441 49.0786 513.945 47.5099 513.151L22.6691 500.581C20.8479 499.659 20.839 497.061 22.6539 496.127L47.4081 483.388C48.9713 482.583 50.0557 481.08 50.3259 479.342L54.6046 451.833Z" stroke="black" stroke-width="3"/>
</g>
<g filter="url(#filter2_d_24_50)">
<path d="M388.144 25.739C391.082 24.3111 394.4 26.8147 393.832 30.031L391.305 44.3658C391.083 45.625 391.476 46.9145 392.363 47.8354L402.461 58.319C404.727 60.6712 403.371 64.6005 400.137 65.055L385.723 67.0808C384.456 67.2587 383.352 68.0312 382.75 69.1594L375.9 82.0027C374.363 84.8844 370.207 84.8092 368.775 81.8738L362.394 68.791C361.834 67.6418 360.758 66.8298 359.499 66.6061L345.167 64.0601C341.952 63.4888 340.739 59.5131 343.088 57.2444L353.559 47.133C354.479 46.2448 354.918 44.9705 354.742 43.7041L352.735 29.2872C352.284 26.0525 355.691 23.6705 358.575 25.2038L371.427 32.0374C372.556 32.6377 373.903 32.6621 375.053 32.1031L388.144 25.739Z" fill="#363F71"/>
<path d="M388.8 27.088C390.636 26.1956 392.71 27.7604 392.355 29.7706L389.828 44.1053C389.522 45.8367 390.063 47.6097 391.283 48.876L401.381 59.3596C402.797 60.8297 401.949 63.2855 399.928 63.5696L385.514 65.5954C383.773 65.84 382.254 66.9023 381.426 68.4535L374.576 81.2968C373.616 83.0979 371.018 83.0509 370.123 81.2162L363.742 68.1334C362.972 66.5533 361.492 65.4368 359.761 65.1293L345.43 62.5832C343.42 62.2262 342.662 59.7413 344.13 58.3234L354.601 48.212C355.866 46.9908 356.47 45.2385 356.228 43.4972L354.221 29.0803C353.939 27.0586 356.068 25.5699 357.87 26.5282L370.722 33.3619C372.275 34.1872 374.128 34.2208 375.709 33.4521L388.8 27.088Z" stroke="black" stroke-width="3"/>
</g>
<path d="M397.249 216.559C400.849 219.759 403.415 224.225 404.249 226.059H416.749C417.347 224.064 418.882 222.069 420.56 220.384C423.396 217.538 426.764 215.096 428.619 211.532C433.128 202.871 431.781 193.96 430.249 190.059C417.449 166.859 392.958 179.559 390.249 190.059C386.249 205.559 392.749 212.559 397.249 216.559Z" fill="#FFCD23"/>
<path d="M413.249 226.058V194.66C413.249 193.167 414.363 191.859 415.843 192.055C418.955 192.467 422.249 194.415 422.249 199.058C422.082 200.392 419.649 203.058 411.249 203.058C402.849 203.058 399.416 200.392 398.749 199.058C397.862 195.955 399.02 191.907 405.152 191.867C406.645 191.858 407.749 193.167 407.749 194.66V226.058" stroke="#ED8D00"/>
<path d="M411.249 236.059C408.049 236.459 407.249 233.892 407.249 232.559H414.249C414.249 234.559 413.249 236.059 411.249 236.059Z" fill="#00127E"/>
<path d="M410.749 233.059C405.533 233.059 404.249 228.559 404.249 226.059H416.749C416.749 230.059 415.249 233.059 410.749 233.059Z" fill="#ACD7E9"/>
<defs>
<filter id="filter0_d_24_50" x="73.7" y="108" width="247.3" height="379.3" filterUnits="userSpaceOnUse" color-interpolation-filters="sRGB">
<feFlood flood-opacity="0" result="BackgroundImageFix"/>
<feColorMatrix in="SourceAlpha" type="matrix" values="0 0 0 0 0 0 0 0 0 0 0 0 0 0 0 0 0 0 127 0" result="hardAlpha"/>
<feOffset dx="-2" dy="3"/>
<feGaussianBlur stdDeviation="0.15"/>
<feComposite in2="hardAlpha" operator="out"/>
<feColorMatrix type="matrix" values="0 0 0 0 0 0 0 0 0 0 0 0 0 0 0 0 0 0 1 0"/>
<feBlend mode="normal" in2="BackgroundImageFix" result="effect1_dropShadow_24_50"/>
<feBlend mode="normal" in="SourceGraphic" in2="effect1_dropShadow_24_50" result="shape"/>
</filter>
<filter id="filter1_d_24_50" x="19.7979" y="448.213" width="103.638" height="102.045" filterUnits="userSpaceOnUse" color-interpolation-filters="sRGB">
<feFlood flood-opacity="0" result="BackgroundImageFix"/>
<feColorMatrix in="SourceAlpha" type="matrix" values="0 0 0 0 0 0 0 0 0 0 0 0 0 0 0 0 0 0 127 0" result="hardAlpha"/>
<feOffset dx="8" dy="2"/>
<feComposite in2="hardAlpha" operator="out"/>
<feColorMatrix type="matrix" values="0 0 0 0 0 0 0 0 0 0 0 0 0 0 0 0 0 0 1 0"/>
<feBlend mode="normal" in2="BackgroundImageFix" result="effect1_dropShadow_24_50"/>
<feBlend mode="normal" in="SourceGraphic" in2="effect1_dropShadow_24_50" result="shape"/>
</filter>
<filter id="filter2_d_24_50" x="341.863" y="24.7273" width="69.7212" height="61.3931" filterUnits="userSpaceOnUse" color-interpolation-filters="sRGB">
<feFlood flood-opacity="0" result="BackgroundImageFix"/>
<feColorMatrix in="SourceAlpha" type="matrix" values="0 0 0 0 0 0 0 0 0 0 0 0 0 0 0 0 0 0 127 0" result="hardAlpha"/>
<feOffset dx="8" dy="2"/>
<feComposite in2="hardAlpha" operator="out"/>
<feColorMatrix type="matrix" values="0 0 0 0 0 0 0 0 0 0 0 0 0 0 0 0 0 0 1 0"/>
<feBlend mode="normal" in2="BackgroundImageFix" result="effect1_dropShadow_24_50"/>
<feBlend mode="normal" in="SourceGraphic" in2="effect1_dropShadow_24_50" result="shape"/>
</filter>
</defs>
</svg>
